<svg xmlns="http://www.w3.org/2000/svg" viewBox="0 0 64 64" width="64" height="64">
  <defs>
    <linearGradient id="whatsappGradient" x1="0%" y1="0%" x2="100%" y2="100%">
      <stop offset="0%" style="stop-color:#25d366;stop-opacity:1" />
      <stop offset="100%" style="stop-color:#128c7e;stop-opacity:1" />
    </linearGradient>
  </defs>
  
  <!-- Background -->
  <circle cx="32" cy="32" r="32" fill="url(#whatsappGradient)"/>
  
  <!-- WhatsApp Phone -->
  <circle cx="32" cy="30" r="18" fill="white"/>
  <circle cx="32" cy="30" r="14" fill="#25d366"/>
  
  <!-- Phone Symbol -->
  <path d="M26 26 Q24 24 26 22 Q28 20 30 22 L32 24 Q34 26 32 28 L30 26 Z" fill="white"/>
  <path d="M34 34 Q36 36 38 34 Q40 32 38 30 L36 28 Q34 26 32 28 L34 30 Z" fill="white"/>
  
  <!-- Chat Bubble -->
  <path d="M20 48 L24 44 Q22 42 24 40 Q26 38 28 40 L36 40 Q38 40 38 42 L38 46 Q38 48 36 48 L28 48 Z" fill="white"/>
</svg>
