<svg xmlns="http://www.w3.org/2000/svg" viewBox="0 0 64 64" width="64" height="64">
  <defs>
    <linearGradient id="supportGradient" x1="0%" y1="0%" x2="100%" y2="100%">
      <stop offset="0%" style="stop-color:#8b5cf6;stop-opacity:1" />
      <stop offset="100%" style="stop-color:#7c3aed;stop-opacity:1" />
    </linearGradient>
  </defs>
  
  <!-- Background Circle -->
  <circle cx="32" cy="32" r="30" fill="url(#supportGradient)"/>
  
  <!-- Support Hands -->
  <path d="M18 35 Q16 33 18 31 Q20 29 22 31 L26 35 Q24 37 22 35 Z" fill="white"/>
  <path d="M46 35 Q48 33 46 31 Q44 29 42 31 L38 35 Q40 37 42 35 Z" fill="white"/>
  
  <!-- Protected Person -->
  <circle cx="32" cy="30" r="6" fill="white"/>
  <path d="M24 45 Q24 38 32 38 Q40 38 40 45 L40 48 L24 48 Z" fill="white"/>
  
  <!-- Heart -->
  <path d="M30 24 Q29 22 27 24 Q25 26 27 28 L30 31 L33 28 Q35 26 33 24 Q31 22 30 24 Z" fill="#ef4444"/>
</svg>
