<svg xmlns="http://www.w3.org/2000/svg" viewBox="0 0 64 64" width="64" height="64">
  <defs>
    <linearGradient id="projectExpGradient" x1="0%" y1="0%" x2="100%" y2="100%">
      <stop offset="0%" style="stop-color:#0891b2;stop-opacity:1" />
      <stop offset="100%" style="stop-color:#0e7490;stop-opacity:1" />
    </linearGradient>
  </defs>
  
  <!-- Background Circle -->
  <circle cx="32" cy="32" r="30" fill="url(#projectExpGradient)"/>
  
  <!-- Folder/Project -->
  <path d="M16 22 L16 20 Q16 18 18 18 L26 18 L30 22 L46 22 Q48 22 48 24 L48 44 Q48 46 46 46 L18 46 Q16 46 16 44 Z" fill="white"/>
  
  <!-- Files -->
  <rect x="20" y="28" width="16" height="2" fill="#0891b2"/>
  <rect x="20" y="32" width="20" height="2" fill="#0891b2"/>
  <rect x="20" y="36" width="14" height="2" fill="#0891b2"/>
  <rect x="20" y="40" width="18" height="2" fill="#0891b2"/>
  
  <!-- Success Check -->
  <circle cx="42" cy="30" r="6" fill="#059669"/>
  <path d="M38 30 L40 32 L46 26" stroke="white" stroke-width="2" fill="none"/>
</svg>
